<?xml version="1.0" encoding="utf-8"?>
<!-- Generator: Adobe Illustrator 26.2.1, SVG Export Plug-In . SVG Version: 6.00 Build 0)  -->
<svg version="1.1" id="Layer_1" xmlns="http://www.w3.org/2000/svg" xmlns:xlink="http://www.w3.org/1999/xlink" x="0px" y="0px"
	 viewBox="0 0 105 105" style="enable-background:new 0 0 105 105;" xml:space="preserve">
<style type="text/css">
	.st0{fill:#FFFFFF;}
</style>
<g>
	<g>
		<g>
			<path class="st0" d="M-0.13-0.13v25.26h25.26V-0.13H-0.13z M5.13,19.87V5.13h14.74v14.74H5.13z"/>
		</g>
	</g>
</g>
<g>
	<g>
		<g>
			<path class="st0" d="M-0.13,79.87v25.26h25.26V79.87H-0.13z M5.13,99.87V85.13h14.74v14.74H5.13z"/>
		</g>
	</g>
</g>
<g>
	<g>
		<g>
			<path class="st0" d="M39.87,39.87v25.26h25.26V39.87H39.87z M45.13,59.87V45.13h14.74v14.74H45.13z"/>
		</g>
	</g>
</g>
<g>
	<g>
		<g>
			<path class="st0" d="M39.87-0.13v25.26h25.26V-0.13H39.87z M45.13,19.87V5.13h14.74v14.74H45.13z"/>
		</g>
	</g>
</g>
<g>
	<g>
		<g>
			<g>
				<path class="st0" d="M79.87,39.87v25.26h25.26V39.87H79.87z M85.13,59.87V45.13h14.74v14.74H85.13z"/>
			</g>
		</g>
	</g>
</g>
<g>
	<g>
		<g>
			<path class="st0" d="M79.87,79.87v25.26h25.26V79.87H79.87z M85.13,99.87V85.13h14.74v14.74H85.13z"/>
		</g>
	</g>
</g>
</svg>
